<svg xmlns="http://www.w3.org/2000/svg" viewBox="0 0 514.57 361.51"><defs><style>.cls-1{fill:#729fcf;}.cls-1,.cls-2,.cls-3{stroke:#000;stroke-miterlimit:10;}.cls-2{fill:none;}.cls-3{fill:#fff;}.cls-4{font-size:13.2px;}.cls-4,.cls-5{font-family:XBYas, XB Yas;}.cls-5{font-size:17px;}</style></defs><g id="Layer_2" data-name="Layer 2"><g id="Layer_1-2" data-name="Layer 1"><rect class="cls-1" x="0.5" y="0.5" width="513.57" height="360.51"/><line class="cls-2" x1="107.01" y1="148.93" x2="179.86" y2="62.46"/><line class="cls-2" x1="316.59" y1="78.63" x2="168.63" y2="65.1"/><line class="cls-2" x1="165.95" y1="64.33" x2="463.14" y2="79.39"/><line class="cls-2" x1="301.2" y1="105.82" x2="301.2" y2="165.69"/><line class="cls-2" x1="460.18" y1="107.35" x2="460.18" y2="154.2"/><line class="cls-2" x1="301.63" y1="172.96" x2="227.95" y2="209.72"/><line class="cls-2" x1="300.69" y1="173.42" x2="375.95" y2="203.35"/><rect class="cls-3" x="132.71" y="33.78" width="76.77" height="32.6" rx="6.55"/><rect class="cls-3" x="66.84" y="143.54" width="76.77" height="32.6" rx="6.55"/><rect class="cls-3" x="12.24" y="197.69" width="76.77" height="32.6" rx="6.55"/><rect class="cls-3" x="12.24" y="307.35" width="76.77" height="32.6" rx="6.55"/><rect class="cls-3" x="104.24" y="307.35" width="76.26" height="32.6" rx="6.55"/><rect class="cls-3" x="195.65" y="307.35" width="76.77" height="32.6" rx="6.55"/><rect class="cls-3" x="335.24" y="307.35" width="76.77" height="32.6" rx="6.55"/><rect class="cls-3" x="427.24" y="307.35" width="76.87" height="32.6" rx="6.55"/><rect class="cls-3" x="111.24" y="197.69" width="76.77" height="32.6" rx="6.55"/><rect class="cls-3" x="219.24" y="197.69" width="76.77" height="32.6" rx="6.55"/><rect class="cls-3" x="329.24" y="197.69" width="76.77" height="32.6" rx="6.55"/><rect class="cls-3" x="263.24" y="143.69" width="76.77" height="32.6" rx="6.55"/><rect class="cls-3" x="263.24" y="77.69" width="76.77" height="32.6" rx="6.55"/><rect class="cls-3" x="416.24" y="77.69" width="87.87" height="32.6" rx="6.55"/><line class="cls-2" x1="0.5" y1="274.37" x2="514.07" y2="273.56"/><text class="cls-4" transform="translate(9.97 290.62)">Primitive Types</text><text class="cls-4" transform="translate(29.2 325.01)"><tspan xml:space="preserve">boolean  </tspan></text><text class="cls-4" transform="translate(34.44 215.43)">Circle</text><text class="cls-4" transform="translate(121.31 215.86)">Square</text><text class="cls-4" transform="translate(82.74 161.35)"><tspan xml:space="preserve">boolean  </tspan></text><text class="cls-4" transform="translate(281.02 161.11)">Shape[]</text><text class="cls-4" transform="translate(433.4 170.49)">Exception<tspan x="12.94" y="15.2">types</tspan></text><text class="cls-4" transform="translate(431.68 95.66)">Throwable</text><text class="cls-4" transform="translate(279.15 95.64)">Object[]</text><text class="cls-4" transform="translate(153.2 51.92)">Object</text><text class="cls-4" transform="translate(9.97 17.64)">Reference Types</text><text class="cls-4" transform="translate(237.13 215.6)">Circle[]</text><text class="cls-4" transform="translate(344.36 215.77)">Square[]</text><text class="cls-4" transform="translate(362.15 325.01)">float</text><text class="cls-4" transform="translate(453.55 324.83)">long</text><text class="cls-4" transform="translate(135.07 325.01)">int</text><text class="cls-4" transform="translate(222.39 325.01)"><tspan xml:space="preserve">byte    </tspan></text><text class="cls-5" transform="translate(296.34 324.88)">...</text></g></g></svg>