<svg xmlns="http://www.w3.org/2000/svg" xmlns:xlink="http://www.w3.org/1999/xlink" viewBox="0 0 285.11 184.31"><defs><style>.cls-1,.cls-4{fill:none;}.cls-2,.cls-6{fill:#729fcf;}.cls-3{clip-path:url(#clip-path);}.cls-4{stroke:#000;stroke-linejoin:round;stroke-width:0.71px;}.cls-5{fill:#fff;}.cls-5,.cls-6{fill-rule:evenodd;}.cls-7{isolation:isolate;}.cls-8{clip-path:url(#clip-path-3);}.cls-9{font-size:18px;}.cls-12,.cls-9{font-family:XBYas, XB Yas;}.cls-10{clip-path:url(#clip-path-6);}.cls-11{clip-path:url(#clip-path-8);}.cls-12{font-size:19.98px;}.cls-13{clip-path:url(#clip-path-10);}</style><clipPath id="clip-path" transform="translate(-0.01 -0.01)"><rect class="cls-1" width="285.17" height="184.37"/></clipPath><clipPath id="clip-path-3" transform="translate(-0.01 -0.01)"><rect class="cls-1" x="92.55" y="91.12" width="32" height="32.55"/></clipPath><clipPath id="clip-path-6" transform="translate(-0.01 -0.01)"><rect class="cls-1" x="88.92" y="134.32" width="53.99" height="32.55"/></clipPath><clipPath id="clip-path-8" transform="translate(-0.01 -0.01)"><rect class="cls-1" x="31.92" y="10.75" width="65.46" height="36.14"/></clipPath><clipPath id="clip-path-10" transform="translate(-0.01 -0.01)"><rect class="cls-1" x="68.68" y="54.27" width="34.99" height="32.55"/></clipPath></defs><g id="Layer_2" data-name="Layer 2"><g id="Layer_1-2" data-name="Layer 1"><polygon class="cls-2" points="0.35 0.35 0.35 183.96 142.57 183.96 284.75 183.96 284.75 0.35 0.35 0.35"/><g class="cls-3"><polygon class="cls-4" points="142.57 183.95 0.35 183.95 0.35 0.35 284.75 0.35 284.75 183.95 142.57 183.95"/></g><polygon class="cls-5" points="142.57 173.18 50.76 173.18 50.76 43.58 234.35 43.58 234.35 173.18 142.57 173.18"/><polygon class="cls-4" points="142.57 173.18 50.76 173.18 50.76 43.58 234.35 43.58 234.35 173.18 142.57 173.18"/><polygon class="cls-6" points="141.86 119.18 75.25 119.18 75.25 83.18 208.45 83.18 208.45 119.18 141.86 119.18"/><polygon class="cls-4" points="141.86 119.18 75.25 119.18 75.25 83.18 208.45 83.18 208.45 119.18 141.86 119.18"/><g class="cls-3"><g class="cls-7"><g class="cls-8"><g class="cls-7"><g class="cls-8"><text class="cls-9" transform="translate(92.54 106.06)">ﬁeld</text></g></g></g></g></g><polygon class="cls-6" points="142.57 162.38 75.95 162.38 75.95 126.38 209.16 126.38 209.16 162.38 142.57 162.38"/><polygon class="cls-4" points="142.57 162.38 75.95 162.38 75.95 126.38 209.16 126.38 209.16 162.38 142.57 162.38"/><g class="cls-3"><g class="cls-7"><g class="cls-10"><g class="cls-7"><g class="cls-10"><text class="cls-9" transform="translate(88.91 149.26)">method</text></g></g></g></g><g class="cls-7"><g class="cls-11"><g class="cls-7"><g class="cls-11"><text class="cls-12" transform="translate(31.9 27.34)">package</text></g></g></g></g><g class="cls-7"><g class="cls-13"><g class="cls-7"><g class="cls-13"><text class="cls-9" transform="translate(68.67 69.21)">class</text></g></g></g></g></g></g></g></svg>