<svg xmlns="http://www.w3.org/2000/svg" viewBox="0 0 713.19 575.58"><defs><style>.cls-1,.cls-2{fill:none;}.cls-1,.cls-2,.cls-3{stroke:#000;stroke-miterlimit:10;stroke-width:2px;}.cls-2{stroke-linecap:round;}.cls-3{fill:#b3b3b3;}.cls-4{font-size:21.4px;}.cls-4,.cls-5,.cls-6{font-family:XBYas, XB Yas;}.cls-5{font-size:21.3px;}.cls-6{font-size:21.6px;}</style></defs><g id="Layer_2" data-name="Layer 2"><g id="Layer_1-2" data-name="Layer 1"><line class="cls-1" x1="332.36" y1="57.96" x2="171.7" y2="99.95"/><line class="cls-1" x1="332.36" y1="57.96" x2="619.17" y2="182.47"/><line class="cls-1" x1="170.7" y1="156.81" x2="401" y2="181.11"/><line class="cls-1" x1="170.7" y1="152.6" x2="170.7" y2="203.41"/><path class="cls-2" d="M1,476.26a18.8,18.8,0,0,0,4.25,12.3c6.39,7.57,16.44,6.4,17.2,6.3l126.85,0c1.37-.13,10.59-.83,17.55,6.08a21.65,21.65,0,0,1,6,12.12"/><path class="cls-2" d="M344.78,476.26a18.83,18.83,0,0,1-4.24,12.3c-6.39,7.57-16.45,6.4-17.2,6.3l-126.85,0c-1.37-.13-10.6-.83-17.56,6.08a21.72,21.72,0,0,0-6,12.12"/><path class="cls-2" d="M318.4,297.7a20.22,20.22,0,0,0,4.72,13.4c7.11,8.25,18.3,7,19.14,6.86l141.14,0c1.53-.14,11.79-.91,19.53,6.62a23.39,23.39,0,0,1,6.72,13.21"/><path class="cls-2" d="M700.9,297.7a20.11,20.11,0,0,1-4.72,13.4c-7.11,8.25-18.3,7-19.13,6.86l-141.15,0c-1.52-.14-11.78-.91-19.53,6.62a23.46,23.46,0,0,0-6.72,13.21"/><polygon class="cls-3" points="170.91 183.08 5.89 435.07 337.51 435.07 170.91 183.08"/><ellipse class="cls-3" cx="401" cy="229.32" rx="104.13" ry="48.21"/><ellipse class="cls-3" cx="619.17" cy="220.39" rx="93.02" ry="37.91"/><ellipse class="cls-3" cx="332.36" cy="29.48" rx="93.45" ry="28.48"/><ellipse class="cls-3" cx="171.7" cy="128.43" rx="93.45" ry="28.48"/><text class="cls-4" transform="translate(107.51 554.66)">checked exceptions</text><text class="cls-5" transform="translate(114.78 326.04)">User-defined<tspan x="13.74" y="24">Exception</tspan><tspan x="27.35" y="48">classes</tspan></text><text class="cls-4" transform="translate(128.4 132.64)">Exception</text><text class="cls-4" transform="translate(285.96 33.31)">Throwable</text><text class="cls-4" transform="translate(363.15 219.17)">Runtime<tspan x="-6.53" y="24">Exception</tspan></text><text class="cls-4" transform="translate(417.94 375.74)">Unchecked exceptions</text><text class="cls-6" transform="translate(596.64 217.11)">Error</text></g></g></svg>